<mxfile host="app.diagrams.net" modified="2022-04-20T14:08:32.498Z" agent="5.0 (Windows NT 10.0; Win64; x64) AppleWebKit/537.36 (KHTML, like Gecko) Chrome/100.0.4896.127 Safari/537.36 Edg/100.0.1185.44" etag="cvSecewuAXkkbNWc_bnU" version="17.2.4" type="github">
  <diagram id="C5RBs43oDa-KdzZeNtuy" name="Page-1">
    <mxGraphModel dx="1161" dy="803" grid="0" gridSize="10" guides="1" tooltips="1" connect="1" arrows="1" fold="1" page="1" pageScale="1" pageWidth="827" pageHeight="1169" background="#FFFFFF" math="0" shadow="1">
      <root>
        <mxCell id="WIyWlLk6GJQsqaUBKTNV-0" />
        <mxCell id="WIyWlLk6GJQsqaUBKTNV-1" parent="WIyWlLk6GJQsqaUBKTNV-0" />
        <mxCell id="8qWyyRRGikf3qG4gJLpT-1" value="输入包含干员、&lt;br&gt;基建房间的数据&lt;br&gt;（详见README：#输入）" style="shape=parallelogram;perimeter=parallelogramPerimeter;whiteSpace=wrap;html=1;fixedSize=1;fontFamily=Helvetica;fontSize=12;align=center;strokeColor=#B3B3B3;fillColor=#f5f5f5;fontColor=#333333;strokeWidth=2;" parent="WIyWlLk6GJQsqaUBKTNV-1" vertex="1">
          <mxGeometry x="330" y="90" width="160" height="60" as="geometry" />
        </mxCell>
        <mxCell id="8qWyyRRGikf3qG4gJLpT-32" value="" style="edgeStyle=orthogonalEdgeStyle;rounded=0;orthogonalLoop=1;jettySize=auto;html=1;fillColor=#f5f5f5;strokeColor=#B3B3B3;strokeWidth=2;" parent="WIyWlLk6GJQsqaUBKTNV-1" source="8qWyyRRGikf3qG4gJLpT-2" target="8qWyyRRGikf3qG4gJLpT-31" edge="1">
          <mxGeometry relative="1" as="geometry" />
        </mxCell>
        <mxCell id="8qWyyRRGikf3qG4gJLpT-65" style="edgeStyle=orthogonalEdgeStyle;rounded=0;orthogonalLoop=1;jettySize=auto;html=1;entryX=0.5;entryY=0;entryDx=0;entryDy=0;fillColor=#f5f5f5;strokeColor=#B3B3B3;strokeWidth=2;" parent="WIyWlLk6GJQsqaUBKTNV-1" source="8qWyyRRGikf3qG4gJLpT-2" target="8qWyyRRGikf3qG4gJLpT-13" edge="1">
          <mxGeometry relative="1" as="geometry">
            <Array as="points">
              <mxPoint x="410" y="250" />
              <mxPoint x="520" y="250" />
            </Array>
          </mxGeometry>
        </mxCell>
        <mxCell id="8qWyyRRGikf3qG4gJLpT-2" value="创建求解器参数类&lt;br&gt;&amp;nbsp;WorkerParams" style="rounded=0;whiteSpace=wrap;html=1;fillColor=#f5f5f5;strokeColor=#B3B3B3;fontColor=#333333;strokeWidth=2;" parent="WIyWlLk6GJQsqaUBKTNV-1" vertex="1">
          <mxGeometry x="330" y="170" width="160" height="50" as="geometry" />
        </mxCell>
        <mxCell id="8qWyyRRGikf3qG4gJLpT-3" value="" style="endArrow=classic;html=1;rounded=0;entryX=0.5;entryY=0;entryDx=0;entryDy=0;exitX=0.5;exitY=1;exitDx=0;exitDy=0;fillColor=#f5f5f5;strokeColor=#B3B3B3;strokeWidth=2;" parent="WIyWlLk6GJQsqaUBKTNV-1" source="8qWyyRRGikf3qG4gJLpT-1" target="8qWyyRRGikf3qG4gJLpT-2" edge="1">
          <mxGeometry width="50" height="50" relative="1" as="geometry">
            <mxPoint x="510" y="390" as="sourcePoint" />
            <mxPoint x="560" y="340" as="targetPoint" />
          </mxGeometry>
        </mxCell>
        <mxCell id="8qWyyRRGikf3qG4gJLpT-41" value="" style="edgeStyle=orthogonalEdgeStyle;rounded=0;orthogonalLoop=1;jettySize=auto;html=1;fillColor=#f5f5f5;strokeColor=#B3B3B3;strokeWidth=2;" parent="WIyWlLk6GJQsqaUBKTNV-1" source="8qWyyRRGikf3qG4gJLpT-8" target="8qWyyRRGikf3qG4gJLpT-40" edge="1">
          <mxGeometry relative="1" as="geometry" />
        </mxCell>
        <mxCell id="8qWyyRRGikf3qG4gJLpT-8" value="通用求解器&lt;br&gt;枚举所单房间中&lt;br&gt;可能的干员组合&lt;br&gt;通过干员及Buff模型&lt;br&gt;计算出加成" style="whiteSpace=wrap;html=1;rounded=0;fillColor=#f5f5f5;strokeColor=#B3B3B3;fontColor=#333333;strokeWidth=2;" parent="WIyWlLk6GJQsqaUBKTNV-1" vertex="1">
          <mxGeometry x="240" y="370" width="160" height="80" as="geometry" />
        </mxCell>
        <mxCell id="8qWyyRRGikf3qG4gJLpT-35" value="" style="edgeStyle=orthogonalEdgeStyle;rounded=0;orthogonalLoop=1;jettySize=auto;html=1;fillColor=#f5f5f5;strokeColor=#B3B3B3;strokeWidth=2;" parent="WIyWlLk6GJQsqaUBKTNV-1" source="8qWyyRRGikf3qG4gJLpT-13" target="8qWyyRRGikf3qG4gJLpT-34" edge="1">
          <mxGeometry relative="1" as="geometry" />
        </mxCell>
        <mxCell id="8qWyyRRGikf3qG4gJLpT-13" value="特化求解器&lt;br&gt;生成占位干员和组合&lt;br&gt;（解决跨房间联动体系等）&lt;br&gt;// TODO" style="rounded=0;whiteSpace=wrap;html=1;fillColor=#f5f5f5;strokeColor=#B3B3B3;fontColor=#333333;strokeWidth=2;" parent="WIyWlLk6GJQsqaUBKTNV-1" vertex="1">
          <mxGeometry x="440" y="370" width="160" height="80" as="geometry" />
        </mxCell>
        <mxCell id="8qWyyRRGikf3qG4gJLpT-61" style="edgeStyle=orthogonalEdgeStyle;rounded=0;orthogonalLoop=1;jettySize=auto;html=1;entryX=0.5;entryY=0;entryDx=0;entryDy=0;fillColor=#f5f5f5;strokeColor=#B3B3B3;strokeWidth=2;" parent="WIyWlLk6GJQsqaUBKTNV-1" source="8qWyyRRGikf3qG4gJLpT-15" target="8qWyyRRGikf3qG4gJLpT-55" edge="1">
          <mxGeometry relative="1" as="geometry" />
        </mxCell>
        <mxCell id="8qWyyRRGikf3qG4gJLpT-15" value="生成整数规划模型并求解&lt;br&gt;得出选中的组合" style="whiteSpace=wrap;html=1;rounded=0;fillColor=#f5f5f5;strokeColor=#B3B3B3;fontColor=#333333;strokeWidth=2;" parent="WIyWlLk6GJQsqaUBKTNV-1" vertex="1">
          <mxGeometry x="340" y="620" width="150" height="75" as="geometry" />
        </mxCell>
        <mxCell id="8qWyyRRGikf3qG4gJLpT-33" value="" style="edgeStyle=orthogonalEdgeStyle;rounded=0;orthogonalLoop=1;jettySize=auto;html=1;fillColor=#f5f5f5;strokeColor=#B3B3B3;strokeWidth=2;" parent="WIyWlLk6GJQsqaUBKTNV-1" source="8qWyyRRGikf3qG4gJLpT-31" target="8qWyyRRGikf3qG4gJLpT-8" edge="1">
          <mxGeometry relative="1" as="geometry" />
        </mxCell>
        <mxCell id="8qWyyRRGikf3qG4gJLpT-31" value="建立干员模型、Buff模型" style="rounded=0;whiteSpace=wrap;html=1;fillColor=#f5f5f5;strokeColor=#B3B3B3;fontColor=#333333;strokeWidth=2;" parent="WIyWlLk6GJQsqaUBKTNV-1" vertex="1">
          <mxGeometry x="240" y="280" width="160" height="50" as="geometry" />
        </mxCell>
        <mxCell id="8qWyyRRGikf3qG4gJLpT-53" value="" style="edgeStyle=orthogonalEdgeStyle;rounded=0;orthogonalLoop=1;jettySize=auto;html=1;fillColor=#f5f5f5;strokeColor=#B3B3B3;strokeWidth=2;" parent="WIyWlLk6GJQsqaUBKTNV-1" source="8qWyyRRGikf3qG4gJLpT-34" target="8qWyyRRGikf3qG4gJLpT-15" edge="1">
          <mxGeometry relative="1" as="geometry" />
        </mxCell>
        <mxCell id="8qWyyRRGikf3qG4gJLpT-34" value="生成的干员及组合&lt;br&gt;可对应若干个房间及干员位" style="rounded=0;whiteSpace=wrap;html=1;fillColor=#f5f5f5;strokeColor=#B3B3B3;fontColor=#333333;strokeWidth=2;" parent="WIyWlLk6GJQsqaUBKTNV-1" vertex="1">
          <mxGeometry x="440" y="490" width="160" height="80" as="geometry" />
        </mxCell>
        <mxCell id="8qWyyRRGikf3qG4gJLpT-52" style="edgeStyle=orthogonalEdgeStyle;rounded=0;orthogonalLoop=1;jettySize=auto;html=1;entryX=0.5;entryY=0;entryDx=0;entryDy=0;fillColor=#f5f5f5;strokeColor=#B3B3B3;strokeWidth=2;" parent="WIyWlLk6GJQsqaUBKTNV-1" source="8qWyyRRGikf3qG4gJLpT-40" target="8qWyyRRGikf3qG4gJLpT-15" edge="1">
          <mxGeometry relative="1" as="geometry" />
        </mxCell>
        <mxCell id="8qWyyRRGikf3qG4gJLpT-40" value="生成&lt;br&gt;对应相应房间及干员的组合" style="rounded=0;whiteSpace=wrap;html=1;fillColor=#f5f5f5;strokeColor=#B3B3B3;fontColor=#333333;strokeWidth=2;" parent="WIyWlLk6GJQsqaUBKTNV-1" vertex="1">
          <mxGeometry x="240" y="490" width="160" height="80" as="geometry" />
        </mxCell>
        <mxCell id="8qWyyRRGikf3qG4gJLpT-66" value="" style="edgeStyle=orthogonalEdgeStyle;rounded=0;orthogonalLoop=1;jettySize=auto;html=1;fillColor=#f5f5f5;strokeColor=#B3B3B3;strokeWidth=2;" parent="WIyWlLk6GJQsqaUBKTNV-1" source="8qWyyRRGikf3qG4gJLpT-55" target="8qWyyRRGikf3qG4gJLpT-56" edge="1">
          <mxGeometry relative="1" as="geometry" />
        </mxCell>
        <mxCell id="8qWyyRRGikf3qG4gJLpT-55" value="对应实际干员的组合&lt;br&gt;直接得出选中干员" style="rounded=0;whiteSpace=wrap;html=1;fillColor=#f5f5f5;strokeColor=#B3B3B3;fontColor=#333333;strokeWidth=2;" parent="WIyWlLk6GJQsqaUBKTNV-1" vertex="1">
          <mxGeometry x="335" y="730" width="160" height="80" as="geometry" />
        </mxCell>
        <mxCell id="8qWyyRRGikf3qG4gJLpT-67" value="" style="edgeStyle=orthogonalEdgeStyle;rounded=0;orthogonalLoop=1;jettySize=auto;html=1;fillColor=#f5f5f5;strokeColor=#B3B3B3;strokeWidth=2;" parent="WIyWlLk6GJQsqaUBKTNV-1" source="8qWyyRRGikf3qG4gJLpT-56" target="8qWyyRRGikf3qG4gJLpT-60" edge="1">
          <mxGeometry relative="1" as="geometry" />
        </mxCell>
        <mxCell id="8qWyyRRGikf3qG4gJLpT-56" value="其他组合进行处理&lt;br&gt;得到选中干员&lt;br&gt;// TODO" style="rounded=0;whiteSpace=wrap;html=1;fillColor=#f5f5f5;strokeColor=#B3B3B3;fontColor=#333333;strokeWidth=2;" parent="WIyWlLk6GJQsqaUBKTNV-1" vertex="1">
          <mxGeometry x="335" y="840" width="160" height="80" as="geometry" />
        </mxCell>
        <mxCell id="8qWyyRRGikf3qG4gJLpT-60" value="输出排班方案" style="shape=parallelogram;perimeter=parallelogramPerimeter;whiteSpace=wrap;html=1;fixedSize=1;fontFamily=Helvetica;fontSize=12;align=center;strokeColor=#B3B3B3;fillColor=#f5f5f5;fontColor=#333333;strokeWidth=2;" parent="WIyWlLk6GJQsqaUBKTNV-1" vertex="1">
          <mxGeometry x="340" y="950" width="150" height="70" as="geometry" />
        </mxCell>
      </root>
    </mxGraphModel>
  </diagram>
</mxfile>
